<svg width="126" height="42" viewBox="0 0 126 42" fill="none" xmlns="http://www.w3.org/2000/svg">
<path d="M54.192 13.728H60.208V32H64.784V13.728H70.832V9.6H54.192V13.728ZM74.7735 26.24V17.28H70.4855V26.688C70.4855 28.4373 70.9122 29.8133 71.7655 30.816C72.6402 31.8187 73.9522 32.32 75.7015 32.32C76.7468 32.32 77.6322 32.1067 78.3575 31.68C79.0828 31.232 79.6802 30.592 80.1495 29.76V32H84.2775V17.28H80.1495V26.24C80.1495 26.8587 80.0215 27.392 79.7655 27.84C79.5308 28.288 79.1895 28.64 78.7415 28.896C78.3148 29.1307 77.8028 29.248 77.2055 29.248C76.3522 29.248 75.7335 28.992 75.3495 28.48C74.9655 27.9467 74.7735 27.2 74.7735 26.24ZM92.4245 17.28H88.3605V32H92.4245V17.28ZM96.7445 21.6L98.6325 18.08C98.3338 17.696 97.9392 17.408 97.4485 17.216C96.9792 17.024 96.4778 16.928 95.9445 16.928C95.1765 16.928 94.4298 17.2053 93.7045 17.76C92.9792 18.2933 92.3925 19.0187 91.9445 19.936C91.4965 20.832 91.2725 21.8667 91.2725 23.04L92.4245 24.192C92.4245 23.488 92.5098 22.8907 92.6805 22.4C92.8725 21.888 93.1498 21.4933 93.5125 21.216C93.8752 20.9387 94.3125 20.8 94.8245 20.8C95.2512 20.8 95.6032 20.8747 95.8805 21.024C96.1792 21.152 96.4672 21.344 96.7445 21.6ZM100.637 11.584C100.637 12.2453 100.883 12.8 101.373 13.248C101.864 13.696 102.451 13.92 103.133 13.92C103.816 13.92 104.392 13.696 104.861 13.248C105.352 12.8 105.597 12.2453 105.597 11.584C105.597 10.9013 105.352 10.3467 104.861 9.92C104.392 9.472 103.816 9.248 103.133 9.248C102.451 9.248 101.864 9.472 101.373 9.92C100.883 10.3467 100.637 10.9013 100.637 11.584ZM101.085 17.28V32H105.117V17.28H101.085ZM108.525 24.64C108.525 26.1547 108.877 27.4987 109.581 28.672C110.306 29.824 111.277 30.72 112.493 31.36C113.73 32 115.127 32.32 116.685 32.32C118.242 32.32 119.629 32 120.845 31.36C122.082 30.72 123.053 29.824 123.757 28.672C124.482 27.4987 124.845 26.1547 124.845 24.64C124.845 23.104 124.482 21.76 123.757 20.608C123.053 19.456 122.082 18.56 120.845 17.92C119.629 17.28 118.242 16.96 116.685 16.96C115.127 16.96 113.73 17.28 112.493 17.92C111.277 18.56 110.306 19.456 109.581 20.608C108.877 21.76 108.525 23.104 108.525 24.64ZM112.749 24.64C112.749 23.808 112.919 23.072 113.261 22.432C113.623 21.792 114.103 21.3013 114.701 20.96C115.298 20.6187 115.959 20.448 116.685 20.448C117.41 20.448 118.071 20.6187 118.669 20.96C119.266 21.3013 119.735 21.792 120.077 22.432C120.439 23.072 120.621 23.808 120.621 24.64C120.621 25.472 120.439 26.208 120.077 26.848C119.735 27.4667 119.266 27.9573 118.669 28.32C118.071 28.6613 117.41 28.832 116.685 28.832C115.959 28.832 115.298 28.6613 114.701 28.32C114.103 27.9573 113.623 27.4667 113.261 26.848C112.919 26.208 112.749 25.472 112.749 24.64Z" fill="#f3f4f6"/>
<g clip-path="url(#clip0_1052_164)">
<path fill-rule="evenodd" clip-rule="evenodd" d="M36.7462 6.47763C30.7296 0.292443 21.4999 -1.67724 13.4206 1.49876C5.34123 4.67476 0.0311009 12.3619 1.76713e-05 20.9244C-0.0313561 29.4869 5.22259 37.2114 13.2783 40.4451C21.3347 43.6779 30.5781 41.7732 36.6395 35.6307C28.6974 42.3986 16.7508 41.8218 9.52016 34.3205C2.2899 26.8187 2.33295 15.0461 9.61759 7.59657C16.9032 0.14622 28.8534 -0.346485 36.7462 6.47763Z" fill="#f1f5f9"/>
<path fill-rule="evenodd" clip-rule="evenodd" d="M39.7293 32.1703C35.94 37.0306 30.0378 39.8397 23.8135 39.7471C20.2302 39.6939 16.7832 38.6808 13.8086 36.882C18.6298 34.1864 18.9304 35.1795 23.668 37.3874C23.668 37.3874 24.2448 37.335 25.3987 37.2297C20.6605 34.7718 17.9666 32.6921 13.236 36.5228C12.5872 36.0993 11.9628 35.6372 11.3663 35.1394C13.6493 32.2885 16.14 31.0713 18.8384 31.489C21.9262 31.9667 27.2115 35.1403 31.2856 35.9448C31.2856 35.9448 31.7473 35.7089 32.6708 35.2371C27.7343 34.7876 22.9259 31.1854 18.9096 30.5668C15.1768 29.9915 12.4608 31.3398 10.7614 34.6117C9.79914 33.7378 8.91899 32.7638 8.13953 31.6981C12.8337 26.5178 20.3267 26.4651 30.6197 31.5408C34.4081 32.9039 37.4445 33.1142 39.7293 32.1703ZM29.4482 36.4428C28.6314 36.3984 27.0421 36.0142 24.6793 35.2895C26.0645 36.2184 27.1838 36.7337 28.0358 36.8364C28.5806 36.9015 29.0507 36.7706 29.4482 36.4428ZM35.7069 33.271C33.2452 34.28 29.9599 33.6852 25.8521 31.4882C28.1918 33.3675 31.0908 34.445 34.1092 34.5559C34.1092 34.5559 34.6421 34.1273 35.7069 33.271Z" fill="#f1f5f9"/>
<path fill-rule="evenodd" clip-rule="evenodd" d="M37.07 30.8536C34.2634 29.7111 29.7563 29.4861 23.5466 30.18C22.9624 30.325 22.3954 30.4583 21.845 30.5801L21.0614 29.5553C22.0296 29.317 23.0497 29.0425 24.122 28.7331C24.5864 27.3782 25.6934 26.7287 27.4438 26.7837C27.9402 26.3828 28.5857 26.2093 29.2193 26.3052C29.8538 26.4011 30.4166 26.7579 30.7662 27.2874C33.5399 23.7246 33.8964 18.348 31.837 11.1571C31.5636 11.3198 31.4491 11.6507 31.5651 11.9434C31.5238 12.7874 31.4763 13.631 31.4213 14.474C31.3314 14.104 31.3152 13.7195 31.3738 13.3427C31.2026 13.9722 31.1425 14.6267 31.1975 15.2762C31.1 14.9935 31.0621 14.6934 31.0866 14.3957C30.9435 14.8535 30.9052 15.3362 30.9748 15.8106C29.9641 13.9236 30.0436 11.6515 31.1823 9.83632C30.5816 10.1881 30.0735 10.6726 29.6963 11.2512C29.7125 10.7961 29.8938 10.3608 30.2071 10.0254C29.4635 10.444 28.8415 11.0453 28.4028 11.7697C28.3207 11.267 28.5155 10.7593 28.9136 10.434C28.0003 10.7852 27.3123 11.5447 27.061 12.4778C27.0837 12.0859 27.165 11.6988 27.3006 11.3306C26.7032 11.8065 26.2363 12.4227 25.9426 13.1222C26.4552 10.8811 28.3391 9.19677 30.6553 8.90907C30.1861 8.46051 29.4482 8.43369 28.9458 8.84639C29.0304 8.5496 29.2396 8.30371 29.5208 8.17012C28.6951 8.26013 27.9139 8.58226 27.2683 9.09732C27.4488 8.70372 27.7665 8.38605 28.1628 8.20106C27.2581 8.31457 26.3906 8.6264 25.6231 9.11322C25.8069 8.80145 26.0576 8.53376 26.3586 8.32692C25.6942 8.49047 25.1183 8.89494 24.7448 9.45942C25.1895 7.98422 26.4297 6.87437 27.9638 6.58084C29.4981 6.28668 31.0704 6.85704 32.0447 8.06016C32.3749 6.8762 33.4341 6.02992 34.68 5.95489C35.9254 5.88049 37.081 6.59439 37.5554 7.73014C37.2233 7.10711 36.5142 6.77441 35.8145 6.91297C36.0214 6.99943 36.1789 7.17213 36.2458 7.38389C35.6636 7.0103 34.9275 6.95706 34.2963 7.24212C34.4981 7.21388 34.7022 7.25888 34.8716 7.36805C34.3979 7.37805 33.9329 7.4966 33.5145 7.71424C33.739 7.66924 33.9727 7.70835 34.1693 7.82427C33.6729 7.86664 33.2453 8.18373 33.0662 8.6423C34.3821 8.02842 35.9451 8.26459 37.0124 9.23914C36.8101 9.19002 36.5964 9.22324 36.4212 9.33355C37.0853 9.45947 37.6638 9.85628 38.0138 10.4249C38.3644 10.9944 38.4525 11.6833 38.2577 12.321C38.0545 11.7506 37.608 11.2971 37.0363 11.0785C37.3014 11.3138 37.4201 11.6697 37.348 12.0142C37.0429 11.3171 36.5127 10.7393 35.8382 10.3708C36.0205 10.6067 36.106 10.902 36.0782 11.1962C35.8732 10.6708 35.4392 10.264 34.8953 10.0881C34.9792 10.2323 34.9912 10.4058 34.9275 10.5599C34.8209 10.2323 34.5853 9.96047 34.2727 9.80544C34.3878 9.93045 34.4541 10.0922 34.4565 10.2617C34.2396 9.90455 33.8137 9.7263 33.4028 9.82134C34.837 11.0786 35.3713 13.0591 34.7599 14.8517C34.8938 13.983 34.6496 13.0991 34.089 12.4152C34.1703 12.6429 34.0923 12.8973 33.8974 13.0441C33.9671 12.6847 33.8924 12.3128 33.69 12.006C33.7737 12.1928 33.7214 12.4111 33.5621 12.5405C33.5968 12.201 33.5062 11.8607 33.3063 11.5816C33.3849 11.7583 33.3332 11.9652 33.179 12.0851C33.1775 11.6366 32.9503 11.218 32.5717 10.9685C34.0678 14.4131 34.6431 18.7998 34.2973 24.1273C35.213 21.9943 37.0794 19.5338 39.8953 16.7463C39.6472 16.8496 39.4201 16.9955 39.2243 17.1781C39.1837 17.5117 38.9975 17.8103 38.7136 17.9962C38.8881 17.7909 38.9476 17.514 38.8729 17.2572C38.7874 17.594 38.5427 17.9453 38.1383 18.3103C38.3409 18.0544 38.4476 17.7917 38.4578 17.524C38.1604 17.7902 37.9156 18.157 37.7232 18.6247C37.7919 18.4221 37.808 18.2062 37.7707 17.9961C37.6792 18.3303 37.4904 18.6306 37.2277 18.8606C37.3099 17.3098 38.4808 16.025 40.0394 15.7797C39.7826 15.5297 39.4219 15.4129 39.0654 15.4646C38.6476 15.6514 38.1969 15.7523 37.7394 15.7638C38.075 15.7114 38.384 15.5514 38.618 15.3078C37.8894 15.3496 37.182 15.5655 36.5568 15.9364C36.7092 15.5787 37.0227 15.311 37.404 15.2134C36.7558 15.3296 36.1366 15.5696 35.5825 15.9205C35.7732 15.1684 36.4731 14.6507 37.26 14.6789C37.0167 14.5983 36.7549 14.5933 36.5092 14.6633C37.0872 14.2662 37.8215 14.1612 38.4901 14.3797C38.3586 14.1947 38.1443 14.0838 37.9148 14.0812C38.9975 13.8044 40.1395 14.2339 40.7578 15.1501C40.7205 14.4039 40.4022 13.6976 39.8633 13.1699C39.8851 13.3267 39.8851 13.5208 39.8633 13.7511C39.8633 13.7511 39.7465 13.4999 39.5116 12.9963C39.5116 12.9963 39.4593 13.1113 39.3523 13.3425C39.3523 13.3425 39.3203 13.2066 39.2566 12.9339C38.8914 12.7704 38.4808 12.7321 38.0911 12.8236C38.8627 12.2459 39.9216 12.2126 40.7301 12.7404C41.5373 13.2681 41.9177 14.242 41.6763 15.166C42.82 14.7497 44.1051 15.0074 44.9921 15.8313C45.8791 16.6544 46.2163 17.901 45.8612 19.0491C45.8579 18.3319 45.5716 17.6448 45.0632 17.1312C45.158 17.2956 45.1463 17.4989 45.0309 17.6498C44.9021 17.1712 44.5151 16.8017 44.0247 16.6909C44.1356 16.8421 44.1449 17.0421 44.0483 17.2021C43.9171 16.7476 43.5636 16.3876 43.1063 16.2432C43.2103 16.3626 43.2748 16.5108 43.2901 16.6676C43.002 16.3241 42.5292 16.1899 42.0997 16.33C43.6756 17.3313 44.349 19.2641 43.7288 21.007C43.7671 20.4058 43.6909 19.8036 43.5052 19.2301C43.478 19.486 43.3934 19.7328 43.2578 19.9531C43.357 19.5319 43.3543 19.0924 43.2494 18.6723C43.2614 18.8332 43.1857 18.9891 43.0504 19.0809C43.0579 18.562 42.9673 18.1685 42.7784 17.9016C42.8113 18.2187 42.7318 18.5279 42.5393 18.8291C42.5692 18.0393 42.3776 17.494 41.9643 17.1948C41.9643 17.1948 41.9643 17.4357 41.9643 17.9175C41.9643 17.9175 41.794 17.5766 41.4527 16.8954C41.45 18.4205 40.7154 19.8537 39.4718 20.7635C39.4718 20.7635 39.5735 20.4381 39.7761 19.7886C39.7761 19.7886 39.6592 19.8722 39.4243 20.0396C39.4243 20.0396 39.621 19.6836 40.0148 18.9706C40.0148 18.9706 39.9303 18.9865 39.7599 19.0182C39.7599 19.0182 39.9673 18.7823 40.3824 18.3102C40.3824 18.3102 40.2868 18.3311 40.0953 18.3738C40.0953 18.3738 40.2282 18.2111 40.4945 17.886C40.3529 17.9734 40.4326 17.7901 40.7342 17.3357C40.7342 17.3357 40.6645 17.383 40.5265 17.4774C40.5265 17.4774 40.6114 17.2471 40.7823 16.7862C36.7025 20.5766 34.7863 24.5907 35.0319 28.8283C36.8669 29.2325 38.5265 30.1832 39.7877 31.5439C38.9406 31.2589 38.0342 31.0286 37.07 30.8536ZM11.8503 31.2339C10.98 31.0204 10.2785 30.6895 9.74658 30.2423C10.4862 30.5342 11.4088 30.7009 12.5134 30.7427L11.8503 31.2339Z" fill="#f1f5f9"/>
<path fill-rule="evenodd" clip-rule="evenodd" d="M14.3212 9.39092C14.528 8.86053 14.9778 8.45698 15.5328 8.30286C16.0884 8.14783 16.6857 8.25963 17.1448 8.60469C17.0958 7.87255 16.478 7.30396 15.7336 7.30396C14.988 7.30396 14.3705 7.87255 14.3212 8.60469C13.9671 7.83109 13.1861 7.33306 12.3236 7.33306C11.462 7.33306 10.6793 7.83109 10.326 8.60469C11.6569 7.77161 13.4181 8.11838 14.3212 9.39092Z" fill="#f1f5f9"/>
<path fill-rule="evenodd" clip-rule="evenodd" d="M12.1846 15.1783C12.3338 14.7974 12.6556 14.508 13.054 14.3971C13.453 14.2862 13.8815 14.3662 14.2103 14.6139C14.1756 14.0894 13.7325 13.6808 13.1978 13.6808C12.6634 13.6808 12.2202 14.0894 12.1846 14.6139C11.9306 14.0588 11.3697 13.7017 10.7513 13.7017C10.133 13.7017 9.572 14.0588 9.31799 14.6139C10.2726 14.017 11.5368 14.2656 12.1846 15.1783Z" fill="#f1f5f9"/>
<path fill-rule="evenodd" clip-rule="evenodd" d="M20.8163 15.5964C20.9655 15.216 21.2874 14.926 21.6866 14.8151C22.0847 14.7042 22.5133 14.7848 22.842 15.0319C22.8073 14.5074 22.3641 14.0989 21.8298 14.0989C21.2951 14.0989 20.8519 14.5075 20.8163 15.0319C20.5632 14.4774 20.0014 14.1203 19.383 14.1203C18.7647 14.1203 18.2037 14.4774 17.9497 15.0319C18.9052 14.4348 20.1684 14.6833 20.8163 15.5964Z" fill="#f1f5f9"/>
</g>
<defs>
<clipPath id="clip0_1052_164">
<rect width="46" height="42" fill="white"/>
</clipPath>
</defs>
</svg>
